<svg xmlns="http://www.w3.org/2000/svg" width="515" height="500" viewBox="0 0 515 500"><rect width="100%" height="100%" fill="#DDDDDD"/><path fill="#999999" d="m118.53 230.54-1.99 11.74q1.87-.39 3.58-.56 1.72-.18 3.32-.18 4.44 0 7.84 1.33 3.39 1.32 5.69 3.66t3.47 5.48 1.17 6.77q0 4.48-1.58 8.19-1.58 3.7-4.38 6.34-2.81 2.63-6.65 4.07-3.85 1.44-8.37 1.44-2.65 0-5.03-.54-2.38-.55-4.47-1.46-2.08-.92-3.86-2.11-1.77-1.19-3.18-2.52l2.97-4.09q.94-1.33 2.46-1.33.97 0 1.98.63 1.02.62 2.33 1.36 1.3.74 3.08 1.37 1.77.62 4.27.62 2.65 0 4.68-.86 2.02-.85 3.37-2.4 1.35-1.54 2.03-3.66.68-2.13.68-4.62 0-4.6-2.67-7.2-2.67-2.59-7.9-2.59-4.02 0-8.23 1.48l-6-1.72 4.68-27.37h27.84v4.09q0 2.07-1.28 3.35-1.29 1.29-4.37 1.29zm57.64 40.45h10.14v7.21h-31.2v-7.21h11.42v-32.88q0-1.95.12-4.02l-8.11 6.79q-.7.54-1.39.68-.68.14-1.28.02-.61-.12-1.07-.41-.47-.29-.71-.64l-3.04-4.18 17.2-14.62h7.92zm32.84-40.45-1.99 11.74q1.87-.39 3.58-.56 1.72-.18 3.32-.18 4.45 0 7.84 1.33 3.39 1.32 5.69 3.66t3.47 5.48 1.17 6.77q0 4.48-1.58 8.19-1.58 3.7-4.38 6.34-2.81 2.63-6.65 4.07t-8.37 1.44q-2.65 0-5.03-.54-2.38-.55-4.47-1.46-2.08-.92-3.86-2.11-1.77-1.19-3.17-2.52l2.96-4.09q.94-1.33 2.46-1.33.97 0 1.99.63 1.01.62 2.32 1.36 1.3.74 3.08 1.37 1.77.62 4.27.62 2.65 0 4.68-.86 2.03-.85 3.37-2.4 1.35-1.54 2.03-3.66.68-2.13.68-4.62 0-4.6-2.67-7.2-2.67-2.59-7.9-2.59-4.01 0-8.23 1.48l-6-1.72 4.68-27.37h27.84v4.09q0 2.07-1.28 3.35-1.29 1.29-4.37 1.29zm54.21 26.6 13.68 21.06h-9.28q-1.05 0-1.69-.55-.65-.54-1.08-1.24l-8.46-13.93q-.19.67-.45 1.25-.25.59-.56 1.09l-7.49 11.59q-.43.66-1.05 1.22-.63.57-1.56.57h-8.62l13.72-20.63-13.18-19.38h9.28q1.06 0 1.56.29.51.29.9.95l8.39 13.34q.43-1.32 1.21-2.61l6.74-10.53q.86-1.44 2.23-1.44h8.85zm31.74-26.6-1.99 11.74q1.87-.39 3.59-.56 1.72-.18 3.32-.18 4.44 0 7.83 1.33 3.4 1.32 5.7 3.66t3.47 5.48 1.17 6.77q0 4.48-1.58 8.19-1.58 3.7-4.39 6.34-2.81 2.63-6.65 4.07t-8.36 1.44q-2.65 0-5.03-.54-2.38-.55-4.47-1.46-2.09-.92-3.86-2.11t-3.18-2.52l2.97-4.09q.93-1.33 2.45-1.33.98 0 1.99.63 1.02.62 2.32 1.36 1.31.74 3.08 1.37 1.78.62 4.27.62 2.66 0 4.68-.86 2.03-.85 3.38-2.4 1.34-1.54 2.02-3.66.69-2.13.69-4.62 0-4.6-2.67-7.2-2.68-2.59-7.9-2.59-4.02 0-8.23 1.48l-6.01-1.72 4.68-27.37h27.85v4.09q0 2.07-1.29 3.35-1.28 1.29-4.37 1.29zM365.67 250q0 7.37-1.58 12.81t-4.37 8.99-6.59 5.29q-3.8 1.73-8.21 1.73t-8.17-1.73q-3.76-1.74-6.53-5.29t-4.33-8.99-1.56-12.81q0-7.41 1.56-12.83t4.33-8.97 6.53-5.28q3.76-1.74 8.17-1.74t8.21 1.74q3.8 1.73 6.59 5.28t4.37 8.97 1.58 12.83m-9.95 0q0-6.12-.89-10.14-.9-4.01-2.4-6.39t-3.45-3.34q-1.95-.95-4.06-.95-2.07 0-4 .95-1.93.96-3.41 3.34t-2.36 6.39q-.88 4.02-.88 10.14 0 6.13.88 10.14.88 4.02 2.36 6.4t3.41 3.33q1.93.96 4 .96 2.11 0 4.06-.96 1.95-.95 3.45-3.33t2.4-6.4q.89-4.01.89-10.14m55.19 0q0 7.37-1.58 12.81t-4.37 8.99-6.59 5.29q-3.8 1.73-8.21 1.73t-8.17-1.73q-3.76-1.74-6.53-5.29t-4.33-8.99-1.56-12.81q0-7.41 1.56-12.83t4.33-8.97 6.53-5.28q3.76-1.74 8.17-1.74t8.21 1.74q3.8 1.73 6.59 5.28t4.37 8.97 1.58 12.83m-9.95 0q0-6.12-.89-10.14-.9-4.01-2.4-6.39t-3.45-3.34q-1.95-.95-4.06-.95-2.07 0-4 .95-1.93.96-3.41 3.34t-2.36 6.39q-.88 4.02-.88 10.14 0 6.13.88 10.14.88 4.02 2.36 6.4t3.41 3.33q1.93.96 4 .96 2.11 0 4.06-.96 1.95-.95 3.45-3.33t2.4-6.4q.89-4.01.89-10.14"/></svg>