<svg xmlns="http://www.w3.org/2000/svg" width="370" height="250" viewBox="0 0 370 250"><rect width="100%" height="100%" fill="#DDDDDD"/><path fill="#999999" d="m79.385 116.685-3.64-.64q.42-2.92 1.62-5.11 1.21-2.2 3.01-3.67 1.81-1.47 4.15-2.21 2.33-.75 5.02-.75 2.8 0 5.06.8 2.25.8 3.85 2.21 1.59 1.42 2.45 3.32.85 1.91.85 4.12 0 1.93-.43 3.4-.44 1.47-1.25 2.56t-2.02 1.85q-1.2.76-2.71 1.26 3.64 1.15 5.43 3.5t1.79 5.91q0 3.02-1.12 5.35-1.12 2.32-3.02 3.9-1.91 1.58-4.41 2.4-2.51.81-5.31.81-3.05 0-5.32-.7t-3.95-2.07q-1.68-1.38-2.85-3.36-1.18-1.99-2.02-4.6l3.05-1.26q1.21-.5 2.26-.26t1.52 1.13q.51.98 1.11 1.93.6.96 1.44 1.7t1.98 1.2q1.13.46 2.7.46 1.76 0 3.08-.57 1.31-.57 2.2-1.5.88-.92 1.31-2.06.44-1.13.44-2.28 0-1.45-.31-2.64t-1.29-2.03-2.81-1.32q-1.84-.48-4.92-.48v-4.92q2.55-.03 4.23-.48t2.67-1.25q1-.79 1.39-1.91t.39-2.47q0-2.85-1.59-4.34-1.6-1.48-4.26-1.48-1.23 0-2.27.35-1.03.35-1.86.98t-1.39 1.47-.84 1.85q-.47 1.28-1.24 1.7t-2.17.2m28.42-11.93h27.97v3q0 1.34-.28 2.17-.28.82-.56 1.38l-15.34 31.59q-.48.98-1.35 1.66-.87.69-2.32.69h-5.01l15.65-30.94q.53-.95 1.05-1.75t1.16-1.53h-19.38q-.64 0-1.12-.47-.47-.48-.47-1.12zm60.95 20.25q0 5.29-1.13 9.19-1.13 3.91-3.14 6.46-2 2.55-4.73 3.79-2.73 1.25-5.89 1.25-3.17 0-5.87-1.25-2.7-1.24-4.69-3.79t-3.11-6.46q-1.12-3.9-1.12-9.19 0-5.32 1.12-9.22 1.12-3.89 3.11-6.44 1.99-2.54 4.69-3.79t5.87-1.25q3.16 0 5.89 1.25t4.73 3.79q2.01 2.55 3.14 6.44 1.13 3.9 1.13 9.22m-7.14 0q0-4.4-.64-7.28-.64-2.89-1.72-4.6-1.08-1.7-2.48-2.39t-2.91-.69q-1.49 0-2.87.69-1.39.69-2.45 2.39-1.07 1.71-1.7 4.6-.63 2.88-.63 7.28 0 4.39.63 7.28.63 2.88 1.7 4.59 1.06 1.71 2.45 2.39 1.38.69 2.87.69 1.51 0 2.91-.69 1.4-.68 2.48-2.39t1.72-4.59q.64-2.89.64-7.28m27.78 5.12 9.83 15.12h-6.67q-.75 0-1.21-.39-.47-.39-.77-.9l-6.08-9.99q-.14.47-.32.89t-.41.79l-5.37 8.31q-.31.48-.76.88-.45.41-1.12.41h-6.19l9.86-14.81-9.47-13.92h6.67q.75 0 1.12.21.36.21.64.69l6.02 9.57q.31-.95.87-1.87l4.84-7.56q.62-1.04 1.6-1.04h6.36zm27.08 8.68h10.38q1.12 0 1.78.63t.66 1.67v4.14h-27.78v-2.3q0-.7.3-1.47.29-.77.94-1.38l12.29-12.32q1.54-1.57 2.76-3 1.21-1.43 2.03-2.83.81-1.4 1.24-2.84.44-1.44.44-3.04 0-1.45-.42-2.56-.42-1.1-1.19-1.86t-1.85-1.13q-1.08-.38-2.42-.38-1.24 0-2.29.35t-1.86.98-1.37 1.47-.84 1.85q-.48 1.28-1.23 1.7-.76.42-2.19.2l-3.64-.64q.42-2.92 1.63-5.11 1.2-2.2 3.01-3.67 1.8-1.47 4.14-2.21 2.34-.75 5.03-.75 2.8 0 5.12.83 2.33.83 3.98 2.34t2.57 3.64q.93 2.13.93 4.73 0 2.24-.66 4.14-.66 1.91-1.76 3.64-1.11 1.74-2.59 3.36-1.49 1.63-3.11 3.31l-9.13 9.32q1.32-.39 2.62-.6t2.48-.21m28.19-27.78-1.43 8.43q1.35-.28 2.58-.4 1.23-.13 2.38-.13 3.19 0 5.63.95 2.43.95 4.09 2.63 1.65 1.68 2.49 3.94.84 2.25.84 4.86 0 3.22-1.14 5.88-1.13 2.66-3.15 4.55-2.01 1.89-4.77 2.92-2.76 1.04-6.01 1.04-1.9 0-3.61-.39-1.71-.4-3.2-1.05-1.5-.66-2.78-1.52-1.27-.85-2.28-1.8l2.13-2.94q.67-.95 1.76-.95.7 0 1.43.44.73.45 1.67.98.94.54 2.21.98 1.27.45 3.07.45 1.9 0 3.36-.61 1.45-.62 2.42-1.73.96-1.1 1.45-2.63.49-1.52.49-3.32 0-3.3-1.91-5.16-1.92-1.86-5.67-1.86-2.89 0-5.91 1.06l-4.31-1.23 3.36-19.66h19.99v2.94q0 1.49-.93 2.41-.92.92-3.13.92zm50.77 13.98q0 5.29-1.14 9.19-1.13 3.91-3.13 6.46-2.01 2.55-4.74 3.79-2.73 1.25-5.89 1.25t-5.87-1.25q-2.7-1.24-4.69-3.79-1.98-2.55-3.1-6.46-1.12-3.9-1.12-9.19 0-5.32 1.12-9.22 1.12-3.89 3.1-6.44 1.99-2.54 4.69-3.79 2.71-1.25 5.87-1.25t5.89 1.25 4.74 3.79q2 2.55 3.13 6.44 1.14 3.9 1.14 9.22m-7.14 0q0-4.4-.65-7.28-.64-2.89-1.72-4.6-1.08-1.7-2.48-2.39t-2.91-.69q-1.48 0-2.87.69t-2.45 2.39q-1.06 1.71-1.69 4.6-.63 2.88-.63 7.28 0 4.39.63 7.28.63 2.88 1.69 4.59t2.45 2.39q1.39.69 2.87.69 1.51 0 2.91-.69 1.4-.68 2.48-2.39t1.72-4.59q.65-2.89.65-7.28"/></svg>