<svg xmlns="http://www.w3.org/2000/svg" width="260" height="350" viewBox="0 0 260 350"><rect width="100%" height="100%" fill="#DDDDDD"/><path fill="#999999" d="M63.61 184.61h7.23q.78 0 1.24.44t.46 1.16v2.89H53.19v-1.6q0-.49.21-1.02.2-.54.65-.97l8.56-8.58q1.07-1.09 1.92-2.08.85-1 1.42-1.97.56-.98.86-1.98.31-1.01.31-2.12 0-1.01-.3-1.78-.29-.77-.83-1.3-.53-.53-1.28-.79t-1.69-.26q-.86 0-1.59.24t-1.3.68q-.56.44-.95 1.03-.39.58-.59 1.28-.33.9-.85 1.19-.53.3-1.52.14l-2.54-.45q.29-2.03 1.13-3.56t2.1-2.55q1.26-1.03 2.88-1.54 1.63-.52 3.5-.52 1.95 0 3.57.58 1.62.57 2.77 1.62 1.15 1.06 1.8 2.54.64 1.48.64 3.29 0 1.57-.46 2.89-.46 1.33-1.23 2.54-.77 1.2-1.8 2.34-1.03 1.13-2.17 2.3l-6.35 6.49q.91-.27 1.82-.42t1.73-.15m29.27-23.71-8.37 10.24-.97 1.21q.81-.41 1.76-.63.95-.23 2.04-.23 1.6 0 3.11.53 1.51.52 2.66 1.59 1.15 1.06 1.85 2.64t.7 3.69q0 1.96-.72 3.69t-2.03 3.01q-1.3 1.29-3.14 2.03-1.85.74-4.07.74-2.26 0-4.06-.72-1.79-.72-3.06-2.02-1.27-1.29-1.94-3.12-.67-1.82-.67-4.04 0-1.99.81-4.09t2.5-4.36l6.73-9.03q.35-.46 1.03-.8.67-.33 1.55-.33zm-7.28 24.57q1.15 0 2.12-.39.96-.39 1.66-1.09.69-.7 1.08-1.65.39-.94.39-2.05 0-1.21-.37-2.18-.37-.96-1.06-1.64-.68-.67-1.63-1.02-.96-.35-2.11-.35t-2.09.39q-.93.39-1.6 1.08-.66.69-1.03 1.64-.37.94-.37 2.04 0 1.17.32 2.13.32.97.96 1.65.63.68 1.57 1.06.93.38 2.16.38m33-10.47q0 3.69-.79 6.41t-2.19 4.49q-1.39 1.78-3.29 2.64-1.9.87-4.11.87-2.2 0-4.08-.87-1.88-.86-3.27-2.64-1.38-1.77-2.16-4.49t-.78-6.41q0-3.7.78-6.41t2.16-4.49q1.39-1.77 3.27-2.64t4.08-.87q2.21 0 4.11.87t3.29 2.64q1.4 1.78 2.19 4.49t.79 6.41m-4.98 0q0-3.06-.44-5.07-.45-2.01-1.2-3.2t-1.73-1.66q-.97-.48-2.03-.48-1.03 0-2 .48-.96.47-1.7 1.66t-1.18 3.2-.44 5.07.44 5.07 1.18 3.2 1.7 1.67q.97.47 2 .47 1.06 0 2.03-.47.98-.48 1.73-1.67t1.2-3.2q.44-2.01.44-5.07m19.35 3.57 6.84 10.53h-4.64q-.53 0-.85-.27-.32-.28-.53-.63l-4.23-6.96q-.1.33-.23.63-.13.29-.28.54l-3.75 5.79q-.21.33-.52.62-.31.28-.78.28h-4.31l6.86-10.32-6.59-9.69h4.64q.53 0 .78.15.26.15.45.48l4.19 6.67q.22-.67.61-1.31l3.37-5.27q.43-.72 1.11-.72h4.43zm11.6-9.36-2.53-.45q.29-2.03 1.13-3.56.83-1.53 2.09-2.55 1.26-1.03 2.89-1.54 1.63-.52 3.5-.52 1.95 0 3.52.56 1.57.55 2.68 1.54 1.11.98 1.71 2.31.59 1.32.59 2.86 0 1.35-.3 2.37-.3 1.03-.87 1.79-.56.76-1.4 1.29-.84.52-1.89.87 2.53.8 3.78 2.44t1.25 4.11q0 2.11-.78 3.73t-2.11 2.72-3.07 1.67q-1.75.56-3.7.56-2.12 0-3.7-.49-1.58-.48-2.75-1.44-1.17-.95-1.99-2.34-.82-1.38-1.4-3.2l2.12-.87q.84-.35 1.57-.19.73.17 1.06.79.36.68.77 1.35.42.66 1.01 1.18.58.51 1.37.83.79.33 1.89.33 1.22 0 2.14-.4t1.53-1.05q.62-.64.92-1.43t.3-1.59q0-1.01-.21-1.84-.22-.83-.9-1.42-.68-.58-1.96-.91t-3.42-.33v-3.44q1.77-.02 2.94-.33t1.86-.87q.7-.55.97-1.33t.27-1.72q0-1.99-1.11-3.02t-2.96-1.03q-.86 0-1.58.24-.73.24-1.3.68-.58.44-.97 1.03-.39.58-.58 1.28-.33.9-.87 1.19-.53.3-1.51.14m26.89-3.94-.99 5.87q.93-.19 1.79-.28t1.66-.09q2.22 0 3.92.66 1.69.67 2.84 1.84t1.74 2.74q.58 1.57.58 3.38 0 2.24-.79 4.09-.78 1.86-2.19 3.17-1.4 1.32-3.32 2.04t-4.19.72q-1.32 0-2.51-.27t-2.23-.73q-1.05-.46-1.94-1.06-.88-.59-1.58-1.25l1.48-2.05q.47-.66 1.23-.66.48 0 .99.31t1.16.68 1.54.68q.89.32 2.14.32 1.32 0 2.34-.43 1.01-.43 1.68-1.2.68-.77 1.02-1.84.34-1.06.34-2.31 0-2.3-1.34-3.59-1.33-1.3-3.95-1.3-2 0-4.11.74l-3-.86 2.34-13.69h13.92v2.05q0 1.03-.64 1.68-.65.64-2.19.64zm35.35 9.73q0 3.69-.79 6.41t-2.18 4.49q-1.39 1.78-3.3 2.64-1.9.87-4.1.87t-4.09-.87q-1.88-.86-3.26-2.64-1.39-1.77-2.17-4.49t-.78-6.41q0-3.7.78-6.41t2.17-4.49q1.38-1.77 3.26-2.64 1.89-.87 4.09-.87t4.1.87q1.91.87 3.3 2.64 1.39 1.78 2.18 4.49t.79 6.41m-4.97 0q0-3.06-.45-5.07t-1.2-3.2-1.72-1.66q-.98-.48-2.03-.48-1.03 0-2 .48-.96.47-1.7 1.66-.75 1.19-1.18 3.2-.44 2.01-.44 5.07t.44 5.07q.43 2.01 1.18 3.2.74 1.19 1.7 1.67.97.47 2 .47 1.05 0 2.03-.47.97-.48 1.72-1.67t1.2-3.2.45-5.07"/></svg>