<svg xmlns="http://www.w3.org/2000/svg" width="630" height="400" viewBox="0 0 630 400"><rect width="100%" height="100%" fill="#DDDDDD"/><path fill="#999999" d="m169.275 165.655-20.38 24.94-2.38 2.95q2-1 4.3-1.55 2.31-.54 4.97-.54 3.89 0 7.57 1.28t6.49 3.87q2.8 2.59 4.51 6.44 1.71 3.84 1.71 8.98 0 4.79-1.76 9-1.76 4.2-4.94 7.33-3.18 3.14-7.67 4.95-4.49 1.8-9.9 1.8-5.51 0-9.88-1.76-4.37-1.75-7.46-4.91t-4.73-7.6q-1.64-4.45-1.64-9.86 0-4.84 1.98-9.95 1.97-5.11 6.1-10.62l16.39-21.99q.85-1.14 2.49-1.95t3.78-.81zm-17.72 59.85q2.8 0 5.15-.95 2.35-.94 4.04-2.66 1.69-1.7 2.64-4.01.95-2.3.95-5.01 0-2.94-.91-5.3-.9-2.35-2.56-3.99t-3.99-2.49-5.13-.85-5.08.94q-2.28.96-3.9 2.64-1.61 1.69-2.52 3.99-.9 2.3-.9 4.96 0 2.86.79 5.21.78 2.35 2.32 4.01 1.55 1.66 3.83 2.59 2.28.92 5.27.92m38.95-39.61-6.18-1.09q.72-4.94 2.76-8.67t5.11-6.22q3.06-2.5 7.03-3.76 3.96-1.26 8.52-1.26 4.75 0 8.58 1.36 3.82 1.35 6.53 3.75 2.7 2.4 4.15 5.63t1.45 6.98q0 3.28-.73 5.77-.74 2.5-2.12 4.35t-3.42 3.13q-2.04 1.29-4.61 2.14 6.18 1.95 9.22 5.94t3.04 10.02q0 5.13-1.9 9.08-1.9 3.94-5.13 6.62t-7.48 4.06-9 1.38q-5.18 0-9.03-1.19-3.85-1.18-6.7-3.51t-4.84-5.7q-2-3.38-3.42-7.79l5.18-2.14q2.04-.86 3.82-.45 1.78.4 2.59 1.92.85 1.67 1.88 3.28 1.02 1.61 2.44 2.87 1.43 1.26 3.35 2.05 1.92.78 4.58.78 3 0 5.23-.97 2.23-.98 3.73-2.54 1.49-1.57 2.23-3.5.74-1.92.74-3.87 0-2.47-.53-4.49-.52-2.01-2.18-3.44t-4.77-2.23q-3.12-.81-8.34-.81v-8.36q4.32-.05 7.17-.81t4.54-2.11q1.68-1.36 2.35-3.26.66-1.9.66-4.18 0-4.84-2.7-7.36-2.71-2.51-7.22-2.51-2.09 0-3.85.59t-3.16 1.66-2.35 2.5q-.95 1.42-1.43 3.13-.8 2.19-2.11 2.9t-3.68.33m96.52 14.11q0 8.97-1.92 15.6-1.93 6.63-5.32 10.95-3.4 4.32-8.03 6.44-4.63 2.11-10 2.11t-9.95-2.11q-4.59-2.12-7.96-6.44t-5.27-10.95-1.9-15.6q0-9.03 1.9-15.63t5.27-10.93q3.37-4.32 7.96-6.43 4.58-2.12 9.95-2.12t10 2.12q4.63 2.11 8.03 6.43 3.39 4.33 5.32 10.93 1.92 6.6 1.92 15.63m-12.11 0q0-7.46-1.1-12.35-1.09-4.9-2.92-7.79-1.83-2.9-4.2-4.06-2.38-1.17-4.94-1.17-2.52 0-4.87 1.17-2.35 1.16-4.16 4.06-1.8 2.89-2.87 7.79-1.07 4.89-1.07 12.35 0 7.45 1.07 12.35 1.07 4.89 2.87 7.79 1.81 2.9 4.16 4.06t4.87 1.16q2.56 0 4.94-1.16 2.37-1.16 4.2-4.06t2.92-7.79q1.1-4.9 1.1-12.35m47.12 8.69 16.67 25.65h-11.31q-1.28 0-2.06-.67-.79-.66-1.31-1.52l-10.31-16.95q-.23.8-.54 1.52-.31.71-.69 1.33l-9.12 14.1q-.52.81-1.28 1.5t-1.9.69h-10.5l16.72-25.13-16.06-23.6h11.31q1.28 0 1.9.35.62.36 1.09 1.16l10.21 16.25q.53-1.62 1.48-3.18l8.21-12.83q1.05-1.75 2.71-1.75h10.78zm29.87-.24h20.9v-22.47q0-3.18.43-7.02zm31.12 0h8.64v6.8q0 .95-.62 1.63-.61.69-1.75.69h-6.27v16.77h-10.22v-16.77h-28.97q-1.19 0-2.09-.73-.9-.74-1.14-1.83l-1.24-5.94 32.54-43.46h11.12zm63.79-8.45q0 8.97-1.92 15.6-1.93 6.63-5.32 10.95-3.4 4.32-8.03 6.44-4.63 2.11-10 2.11t-9.95-2.11q-4.59-2.12-7.96-6.44t-5.27-10.95-1.9-15.6q0-9.03 1.9-15.63t5.27-10.93q3.37-4.32 7.96-6.43 4.58-2.12 9.95-2.12t10 2.12q4.63 2.11 8.03 6.43 3.39 4.33 5.32 10.93 1.92 6.6 1.92 15.63m-12.11 0q0-7.46-1.1-12.35-1.09-4.9-2.92-7.79-1.83-2.9-4.2-4.06-2.38-1.17-4.94-1.17-2.52 0-4.87 1.17-2.35 1.16-4.16 4.06-1.8 2.89-2.87 7.79-1.07 4.89-1.07 12.35 0 7.45 1.07 12.35 1.07 4.89 2.87 7.79 1.81 2.9 4.16 4.06t4.87 1.16q2.56 0 4.94-1.16 2.37-1.16 4.2-4.06t2.92-7.79q1.1-4.9 1.1-12.35m67.21 0q0 8.97-1.92 15.6-1.93 6.63-5.32 10.95-3.4 4.32-8.03 6.44-4.63 2.11-10 2.11t-9.95-2.11q-4.59-2.12-7.96-6.44t-5.27-10.95-1.9-15.6q0-9.03 1.9-15.63t5.27-10.93q3.37-4.32 7.96-6.43 4.58-2.12 9.95-2.12t10 2.12q4.63 2.11 8.03 6.43 3.39 4.33 5.32 10.93 1.92 6.6 1.92 15.63m-12.11 0q0-7.46-1.1-12.35-1.09-4.9-2.92-7.79-1.83-2.9-4.2-4.06-2.38-1.17-4.94-1.17-2.52 0-4.87 1.17-2.35 1.16-4.16 4.06-1.8 2.89-2.87 7.79-1.07 4.89-1.07 12.35 0 7.45 1.07 12.35 1.07 4.89 2.87 7.79 1.81 2.9 4.16 4.06t4.87 1.16q2.56 0 4.94-1.16 2.37-1.16 4.2-4.06t2.92-7.79q1.1-4.9 1.1-12.35"/></svg>