<svg xmlns="http://www.w3.org/2000/svg" width="1500" height="600" viewBox="0 0 1500 600"><rect width="100%" height="100%" fill="#DDDDDD"/><path fill="#999999" d="M371.02 352.995h25.61v18.22h-78.8v-18.22h28.86v-83.04q0-4.92.3-10.14l-20.49 17.14q-1.77 1.37-3.5 1.72-1.72.34-3.25.05-1.53-.3-2.71-1.04-1.18-.73-1.77-1.62l-7.68-10.54 43.43-36.94h20zm82.94-102.15-5.03 29.65q4.73-.98 9.07-1.43 4.33-.44 8.37-.44 11.23 0 19.8 3.35t14.38 9.26 8.76 13.84q2.96 7.93 2.96 17.09 0 11.32-3.99 20.68t-11.08 16.01-16.8 10.29q-9.7 3.65-21.12 3.65-6.7 0-12.71-1.38t-11.28-3.7q-5.27-2.31-9.75-5.32-4.48-3-8.03-6.35l7.49-10.34q2.36-3.35 6.2-3.35 2.47 0 5.03 1.58 2.56 1.57 5.86 3.44t7.78 3.45 10.79 1.58q6.69 0 11.82-2.17 5.12-2.17 8.52-6.06 3.39-3.89 5.12-9.26 1.72-5.37 1.72-11.67 0-11.62-6.75-18.17-6.74-6.55-19.94-6.55-10.15 0-20.79 3.74l-15.16-4.33 11.82-69.15h70.32v10.34q0 5.22-3.25 8.47t-11.03 3.25zm178.58 49.15q0 18.62-3.99 32.36t-11.03 22.71q-7.05 8.96-16.65 13.34-9.6 4.39-20.73 4.39t-20.64-4.39q-9.51-4.38-16.5-13.34-6.99-8.97-10.93-22.71t-3.94-32.36q0-18.71 3.94-32.4t10.93-22.66q6.99-8.96 16.5-13.34 9.51-4.39 20.64-4.39t20.73 4.39q9.6 4.38 16.65 13.34 7.04 8.97 11.03 22.66t3.99 32.4m-25.12 0q0-15.46-2.27-25.61-2.26-10.14-6.05-16.15-3.8-6.01-8.72-8.42-4.93-2.41-10.24-2.41-5.22 0-10.1 2.41t-8.62 8.42-5.96 16.15q-2.21 10.15-2.21 25.61 0 15.47 2.21 25.61 2.22 10.15 5.96 16.16t8.62 8.42 10.1 2.41q5.31 0 10.24-2.41 4.92-2.41 8.72-8.42 3.79-6.01 6.05-16.16 2.27-10.14 2.27-25.61m139.38 0q0 18.62-3.99 32.36t-11.03 22.71q-7.05 8.96-16.65 13.34-9.6 4.39-20.73 4.39t-20.64-4.39q-9.51-4.38-16.5-13.34-6.99-8.97-10.93-22.71t-3.94-32.36q0-18.71 3.94-32.4t10.93-22.66q6.99-8.96 16.5-13.34 9.51-4.39 20.64-4.39t20.73 4.39q9.6 4.38 16.65 13.34 7.04 8.97 11.03 22.66t3.99 32.4m-25.12 0q0-15.46-2.27-25.61-2.26-10.14-6.05-16.15-3.8-6.01-8.72-8.42-4.93-2.41-10.24-2.41-5.22 0-10.1 2.41t-8.62 8.42-5.96 16.15q-2.21 10.15-2.21 25.61 0 15.47 2.21 25.61 2.22 10.15 5.96 16.16t8.62 8.42 10.1 2.41q5.31 0 10.24-2.41 4.92-2.41 8.72-8.42 3.79-6.01 6.05-16.16 2.27-10.14 2.27-25.61m97.71 18.03 34.58 53.19h-23.45q-2.66 0-4.28-1.38-1.63-1.38-2.71-3.15l-21.38-35.17q-.49 1.68-1.13 3.16-.64 1.47-1.43 2.75l-18.91 29.26q-1.08 1.67-2.66 3.1-1.57 1.43-3.94 1.43h-21.77l34.68-52.11-33.3-48.95h23.45q2.66 0 3.94.74t2.26 2.41l21.18 33.69q1.08-3.35 3.05-6.6l17.04-26.6q2.17-3.64 5.62-3.64h22.36zm128.84-89.24-42.26 51.71-4.92 6.11q4.14-2.07 8.91-3.2 4.78-1.14 10.3-1.14 8.07 0 15.71 2.66 7.63 2.66 13.44 8.03t9.36 13.35 3.55 18.61q0 9.95-3.65 18.67-3.64 8.72-10.24 15.22t-15.91 10.24q-9.31 3.75-20.54 3.75-11.42 0-20.49-3.65-9.06-3.64-15.46-10.19t-9.8-15.76-3.4-20.44q0-10.05 4.09-20.64t12.66-22.01l33.98-45.61q1.77-2.36 5.17-4.04 3.4-1.67 7.83-1.67zm-36.74 124.11q5.81 0 10.69-1.97 4.87-1.97 8.37-5.52 3.5-3.54 5.47-8.32t1.97-10.39q0-6.11-1.87-10.98-1.88-4.88-5.32-8.28-3.45-3.4-8.28-5.17-4.82-1.77-10.64-1.77-5.81 0-10.54 1.97-4.72 1.97-8.07 5.46-3.35 3.5-5.22 8.28t-1.87 10.29q0 5.91 1.62 10.79 1.63 4.87 4.83 8.32t7.93 5.37q4.72 1.92 10.93 1.92m166.66-52.9q0 18.62-3.99 32.36t-11.03 22.71q-7.04 8.96-16.65 13.34-9.6 4.39-20.73 4.39t-20.64-4.39q-9.5-4.38-16.49-13.34-7-8.97-10.94-22.71t-3.94-32.36q0-18.71 3.94-32.4t10.94-22.66q6.99-8.96 16.49-13.34 9.51-4.39 20.64-4.39t20.73 4.39q9.61 4.38 16.65 13.34 7.04 8.97 11.03 22.66t3.99 32.4m-25.12 0q0-15.46-2.26-25.61-2.27-10.14-6.06-16.15t-8.72-8.42q-4.92-2.41-10.24-2.41-5.22 0-10.1 2.41-4.87 2.41-8.61 8.42-3.75 6.01-5.96 16.15-2.22 10.15-2.22 25.61 0 15.47 2.22 25.61 2.21 10.15 5.96 16.16 3.74 6.01 8.61 8.42 4.88 2.41 10.1 2.41 5.32 0 10.24-2.41 4.93-2.41 8.72-8.42t6.06-16.16q2.26-10.14 2.26-25.61m139.38 0q0 18.62-3.99 32.36t-11.03 22.71q-7.04 8.96-16.65 13.34-9.6 4.39-20.73 4.39t-20.64-4.39q-9.5-4.38-16.49-13.34-7-8.97-10.94-22.71t-3.94-32.36q0-18.71 3.94-32.4t10.94-22.66q6.99-8.96 16.49-13.34 9.51-4.39 20.64-4.39t20.73 4.39q9.61 4.38 16.65 13.34 7.04 8.97 11.03 22.66t3.99 32.4m-25.12 0q0-15.46-2.26-25.61-2.27-10.14-6.06-16.15t-8.72-8.42q-4.92-2.41-10.24-2.41-5.22 0-10.1 2.41-4.87 2.41-8.61 8.42-3.75 6.01-5.96 16.15-2.22 10.15-2.22 25.61 0 15.47 2.22 25.61 2.21 10.15 5.96 16.16 3.74 6.01 8.61 8.42 4.88 2.41 10.1 2.41 5.32 0 10.24-2.41 4.93-2.41 8.72-8.42t6.06-16.16q2.26-10.14 2.26-25.61"/></svg>