<svg xmlns="http://www.w3.org/2000/svg" width="1250" height="500" viewBox="0 0 1250 500"><rect width="100%" height="100%" fill="#DDDDDD"/><path fill="#999999" d="M309.51 294.115h21.32v15.17h-65.6v-15.17h24.02v-69.13q0-4.1.25-8.44l-17.06 14.27q-1.47 1.14-2.91 1.43-1.43.29-2.71.04-1.27-.24-2.25-.86-.98-.61-1.48-1.35l-6.39-8.78 36.16-30.75h16.65zm81.59-3.69h30.42q3.28 0 5.2 1.84 1.93 1.85 1.93 4.88v12.14h-81.34v-6.72q0-2.05.86-4.31.86-2.25 2.75-4.06l35.99-36.08q4.51-4.59 8.08-8.77t5.95-8.28q2.37-4.1 3.64-8.33 1.28-4.22 1.28-8.89 0-4.27-1.23-7.51t-3.49-5.45q-2.25-2.21-5.41-3.32t-7.09-1.11q-3.61 0-6.69 1.03-3.07 1.02-5.45 2.87-2.38 1.84-4.02 4.3t-2.46 5.41q-1.39 3.78-3.61 5.01-2.21 1.23-6.39.57l-10.66-1.89q1.23-8.52 4.75-14.96 3.53-6.44 8.82-10.74 5.29-4.31 12.13-6.48 6.85-2.17 14.72-2.17 8.2 0 15.01 2.41 6.81 2.42 11.64 6.85 4.84 4.43 7.55 10.66 2.7 6.23 2.7 13.86 0 6.56-1.92 12.14-1.93 5.57-5.17 10.66-3.24 5.08-7.58 9.84-4.35 4.75-9.11 9.67l-26.73 27.31q3.86-1.15 7.67-1.77 3.81-.61 7.26-.61m82.57-81.34-4.18 24.68q3.93-.82 7.54-1.19t6.97-.37q9.35 0 16.48 2.79 7.14 2.79 11.98 7.71 4.83 4.92 7.29 11.52t2.46 14.22q0 9.43-3.32 17.22t-9.22 13.33q-5.91 5.53-13.98 8.57-8.08 3.03-17.59 3.03-5.58 0-10.58-1.15-5-1.14-9.39-3.07t-8.12-4.43-6.68-5.29l6.23-8.61q1.97-2.79 5.17-2.79 2.05 0 4.18 1.32 2.13 1.31 4.88 2.87 2.75 1.55 6.48 2.87 3.73 1.31 8.98 1.31 5.57 0 9.84-1.81 4.26-1.8 7.09-5.04t4.26-7.71q1.44-4.47 1.44-9.71 0-9.68-5.62-15.13-5.62-5.46-16.6-5.46-8.45 0-17.31 3.12l-12.62-3.61 9.84-57.56h58.54v8.61q0 4.34-2.7 7.05-2.71 2.71-9.19 2.71zm148.67 40.91q0 15.5-3.33 26.94-3.32 11.44-9.18 18.9t-13.86 11.11q-7.99 3.65-17.26 3.65-9.26 0-17.18-3.65-7.91-3.65-13.73-11.11t-9.1-18.9-3.28-26.94q0-15.58 3.28-26.97 3.28-11.4 9.1-18.86 5.82-7.47 13.73-11.11 7.92-3.65 17.18-3.65 9.27 0 17.26 3.65 8 3.64 13.86 11.11 5.86 7.46 9.18 18.86 3.33 11.39 3.33 26.97m-20.91 0q0-12.87-1.89-21.32-1.89-8.44-5.04-13.44-3.16-5.01-7.26-7.01-4.1-2.01-8.53-2.01-4.34 0-8.4 2.01-4.06 2-7.18 7.01-3.11 5-4.96 13.44-1.84 8.45-1.84 21.32 0 12.88 1.84 21.32 1.85 8.45 4.96 13.45 3.12 5 7.18 7.01t8.4 2.01q4.43 0 8.53-2.01t7.26-7.01q3.15-5 5.04-13.45 1.89-8.44 1.89-21.32m81.34 15.01 28.78 44.28h-19.51q-2.22 0-3.57-1.15t-2.26-2.62l-17.79-29.28q-.41 1.4-.94 2.63-.54 1.23-1.19 2.29l-15.75 24.36q-.9 1.39-2.21 2.58t-3.28 1.19h-18.12l28.86-43.38-27.71-40.75h19.51q2.22 0 3.28.61 1.07.62 1.89 2.01l17.63 28.05q.9-2.79 2.54-5.5l14.19-22.14q1.8-3.03 4.67-3.03h18.61zm66.75-55.92-4.18 24.68q3.93-.82 7.54-1.19t6.97-.37q9.35 0 16.48 2.79 7.14 2.79 11.97 7.71 4.84 4.92 7.3 11.52t2.46 14.22q0 9.43-3.32 17.22t-9.22 13.33q-5.91 5.53-13.99 8.57-8.07 3.03-17.58 3.03-5.58 0-10.58-1.15-5-1.14-9.39-3.07t-8.12-4.43-6.68-5.29l6.23-8.61q1.97-2.79 5.17-2.79 2.05 0 4.18 1.32 2.13 1.31 4.88 2.87 2.74 1.55 6.47 2.87 3.74 1.31 8.98 1.31 5.58 0 9.84-1.81 4.27-1.8 7.1-5.04t4.26-7.71q1.44-4.47 1.44-9.71 0-9.68-5.62-15.13-5.62-5.46-16.61-5.46-8.44 0-17.3 3.12l-12.63-3.61 9.84-57.56h58.55v8.61q0 4.34-2.7 7.05-2.71 2.71-9.19 2.71zm148.66 40.91q0 15.5-3.32 26.94t-9.18 18.9-13.86 11.11q-7.99 3.65-17.26 3.65t-17.18-3.65-13.73-11.11q-5.83-7.46-9.11-18.9t-3.28-26.94q0-15.58 3.28-26.97 3.28-11.4 9.11-18.86 5.82-7.47 13.73-11.11 7.91-3.65 17.18-3.65t17.26 3.65q8 3.64 13.86 11.11 5.86 7.46 9.18 18.86 3.32 11.39 3.32 26.97m-20.91 0q0-12.87-1.88-21.32-1.89-8.44-5.05-13.44-3.15-5.01-7.25-7.01-4.1-2.01-8.53-2.01-4.35 0-8.41 2.01-4.05 2-7.17 7.01-3.12 5-4.96 13.44-1.85 8.45-1.85 21.32 0 12.88 1.85 21.32 1.84 8.45 4.96 13.45t7.17 7.01q4.06 2.01 8.41 2.01 4.43 0 8.53-2.01t7.25-7.01q3.16-5 5.05-13.45 1.88-8.44 1.88-21.32m116.03 0q0 15.5-3.32 26.94t-9.18 18.9-13.86 11.11q-7.99 3.65-17.26 3.65t-17.18-3.65-13.73-11.11q-5.83-7.46-9.11-18.9t-3.28-26.94q0-15.58 3.28-26.97 3.28-11.4 9.11-18.86 5.82-7.47 13.73-11.11 7.91-3.65 17.18-3.65t17.26 3.65q8 3.64 13.86 11.11 5.86 7.46 9.18 18.86 3.32 11.39 3.32 26.97m-20.91 0q0-12.87-1.88-21.32-1.89-8.44-5.05-13.44-3.15-5.01-7.25-7.01-4.1-2.01-8.53-2.01-4.35 0-8.41 2.01-4.05 2-7.17 7.01-3.12 5-4.96 13.44-1.85 8.45-1.85 21.32 0 12.88 1.85 21.32 1.84 8.45 4.96 13.45t7.17 7.01q4.06 2.01 8.41 2.01 4.43 0 8.53-2.01t7.25-7.01q3.16-5 5.05-13.45 1.88-8.44 1.88-21.32"/></svg>